#!OML:ASF H:\Pregnant\Project 1\Capture day 1\Session 1\femalepreg.ASF
:FULLY-SPECIFIED
:DEGREES
894
root 7.77083 16.0285 21.121 48.7422 -430.61 -370.495
lowerback -1.42489 -0.169213 -1.9561
upperback -3.95739 -0.254642 1.31102
thorax -3.25722 -0.0669163 2.45122
lowerneck -31.3252 4.92185 3.78841
upperneck 8.15855 5.27945 -2.5965
head 7.51788 2.29896 -0.712834
rclavicle -3.47873e-014 -2.90226e-014
rhumerus -24.5971 45.2804 -80.9899
rradius 75.7088
rwrist 0.40108
rhand -11.7664 -14.3948
rfingers 7.12502
rthumb 14.2821 -43.8837
lclavicle -3.47873e-014 -2.90226e-014
lhumerus -31.0464 -40.906 89.8711
lradius 53.5308
lwrist 35.9769
lhand -23.3115 5.79938
lfingers 7.12502
lthumb 3.14226 35.756
rfemur -51.718 23.5905 -1.86259
rtibia 23.7523
rfoot -7.55615 -36.3422
rtoes -9.51354
lfemur -34.4092 -4.61291 -4.97677
ltibia 5.1684e-014
lfoot 2.21562 13.8414
ltoes -19.0851
895
root 7.74914 16.0231 21.141 48.0325 -430.602 -370.554
lowerback -1.79625 -0.186574 -1.95268
upperback -4.16025 -0.27928 1.29463
thorax -3.25715 -0.0804909 2.43198
lowerneck -30.8778 4.83623 3.88702
upperneck 8.92931 5.17052 -2.46273
head 7.72681 2.2784 -0.691363
rclavicle -3.45885e-014 1.19271e-015
rhumerus -26.0192 45.1051 -81.9263
rradius 76.1665
rwrist 0.0359192
rhand -11.5757 -14.3584
rfingers 7.12502
rthumb 14.4658 -43.8341
lclavicle -3.45885e-014 1.19271e-015
lhumerus -32.5751 -40.7274 90.6219
lradius 54.0314
lwrist 36.0108
lhand -23.0468 6.0167
lfingers 7.12502
lthumb 3.39791 35.9694
rfemur -50.7722 23.8978 -1.44158
rtibia 23.7977
rfoot -7.45926 -36.437
rtoes -10.0942
lfemur -33.5005 -4.85909 -5.10506
ltibia -8.90555e-014
lfoot 2.10273 13.8622
ltoes -19.4963
896
root 7.72798 16.0167 21.1611 47.3528 -430.592 -370.624
lowerback -2.16786 -0.204347 -1.95349
upperback -4.34971 -0.304348 1.28872
thorax -3.24324 -0.0943593 2.42571
lowerneck -30.5138 4.74938 3.96376
upperneck 9.74078 5.06131 -2.33196
head 7.95048 2.25563 -0.670578
rclavicle 3.75703e-014 -1.78906e-014
rhumerus -27.3298 44.8817 -82.7684
rradius 76.5695
rwrist -0.333316
rhand -11.4052 -14.3426
rfingers 7.12502
rthumb 14.6302 -43.8066
lclavicle 3.75703e-014 -1.78906e-014
lhumerus -33.9869 -40.4973 91.3014
lradius 54.5031
lwrist 36.0335
lhand -22.8094 6.22121
lfingers 7.12502
lthumb 3.62713 36.1701
rfemur -49.8402 24.191 -1.02155
rtibia 23.8403
rfoot -7.37092 -36.5204
rtoes -10.6561
lfemur -32.6105 -5.09487 -5.22997
ltibia -1.35174e-014
lfoot 1.98659 13.8795
ltoes -19.8729
897
root 7.70739 16.0095 21.1815 46.688 -430.576 -370.697
lowerback -2.53179 -0.226316 -1.95503
upperback -4.5277 -0.334954 1.29466
thorax -3.22167 -0.111035 2.43194
lowerneck -30.1931 4.6628 4.02031
upperneck 10.5587 4.9556 -2.20947
head 8.18276 2.23208 -0.648785
rclavicle 3.22031e-014 1.19271e-014
rhumerus -28.5271 44.6081 -83.524
rradius 76.8968
rwrist -0.690131
rhand -11.2669 -14.3213
rfingers 7.12502
rthumb 14.7634 -43.7756
lclavicle 3.22031e-014 1.19271e-014
lhumerus -35.2974 -40.2063 91.9089
lradius 54.9535
lwrist 36.0456
lhand -22.5828 6.40685
lfingers 7.12502
lthumb 3.84601 36.3519
rfemur -48.6763 23.7392 -0.0216735
rtibia 23.8798
rfoot -7.33577 -35.7083
rtoes -11.1703
lfemur -31.736 -5.32762 -5.35274
ltibia -3.18055e-015
lfoot 1.87085 13.8933
ltoes -20.2435
898
root 7.68746 16.0016 21.2019 46.0407 -430.553 -370.78
lowerback -2.88269 -0.251913 -1.94563
upperback -4.69135 -0.370546 1.3026
thorax -3.1925 -0.130744 2.43388
lowerneck -29.9141 4.57827 4.06985
upperneck 11.3769 4.85038 -2.09441
head 8.42188 2.20695 -0.628254
rclavicle -8.54774e-015 -2.0276e-014
rhumerus -29.6087 44.2743 -84.2099
rradius 77.1405
rwrist -1.02825
rhand -11.1603 -14.2726
rfingers 7.12502
rthumb 14.8661 -43.7192
lclavicle -8.54774e-015 -2.0276e-014
lhumerus -36.5059 -39.8605 92.4253
lradius 55.3831
lwrist 36.0381
lhand -22.3523 6.56995
lfingers 7.12502
lthumb 4.06854 36.5108
rfemur -47.5589 23.3654 0.874307
rtibia 23.9176
rfoot -7.34387 -35.0167
rtoes -11.6232
lfemur -30.8714 -5.55688 -5.46857
ltibia -7.07673e-014
lfoot 1.75611 13.9074
ltoes -20.5993
